<?xml version="1.0" standalone="no"?>
<!DOCTYPE svg PUBLIC "-//W3C//DTD SVG 20010904//EN"
 "http://www.w3.org/TR/2001/REC-SVG-20010904/DTD/svg10.dtd">
<svg version="1.0" xmlns="http://www.w3.org/2000/svg"
 width="300.000000pt" height="70.000000pt" viewBox="0 0 300.000000 70.000000"
 preserveAspectRatio="xMidYMid meet">

<g transform="translate(0.000000,70.000000) scale(0.100000,-0.100000)"
fill="#000000" stroke="none">
<path d="M260 684 c-120 -32 -213 -127 -245 -249 -19 -74 -19 -96 0 -170 21
-81 74 -157 138 -200 103 -68 44 -65 1347 -65 1303 0 1244 -3 1347 65 64 43
117 119 138 200 19 74 19 96 0 170 -32 124 -126 218 -250 250 -87 22 -2390 22
-2475 -1z m161 -253 c22 -18 23 -21 8 -36 -15 -15 -19 -15 -40 -2 -36 22 -69
6 -69 -33 0 -39 33 -55 69 -33 21 13 25 13 40 -2 15 -15 14 -18 -8 -36 -34
-28 -95 -25 -126 6 -35 34 -35 96 0 130 31 31 92 34 126 6z m194 -6 c19 -18
25 -35 25 -65 0 -56 -34 -90 -90 -90 -56 0 -90 34 -90 90 0 30 6 47 25 65 18
19 35 25 65 25 30 0 47 -6 65 -25z m144 -22 l40 -48 1 48 c0 43 2 47 25 47 25
0 25 -1 25 -90 0 -89 0 -90 -25 -90 -17 0 -34 13 -60 46 l-35 47 0 -47 c0 -42
-2 -46 -25 -46 -25 0 -25 1 -25 90 0 82 2 90 19 90 10 0 37 -21 60 -47z m215
0 l36 -46 0 46 c0 43 2 47 25 47 25 0 25 -1 25 -90 0 -87 -1 -90 -22 -90 -15
1 -35 17 -58 48 l-35 47 -3 -47 c-3 -43 -5 -48 -28 -48 -24 0 -24 1 -24 90 0
88 1 90 24 90 16 0 35 -14 60 -47z m266 27 c0 -17 -7 -20 -40 -20 -29 0 -40
-4 -40 -15 0 -10 11 -15 35 -15 28 0 35 -4 35 -20 0 -16 -7 -20 -35 -20 -24 0
-35 -5 -35 -15 0 -11 11 -15 40 -15 33 0 40 -3 40 -20 0 -18 -7 -20 -65 -20
l-65 0 0 90 0 90 65 0 c58 0 65 -2 65 -20z m171 1 c22 -18 23 -21 8 -36 -15
-15 -19 -15 -40 -2 -36 22 -69 6 -69 -33 0 -39 33 -55 69 -33 21 13 25 13 40
-2 15 -15 14 -18 -8 -36 -14 -12 -38 -19 -63 -19 -54 0 -88 34 -88 90 0 56 34
90 88 90 25 0 49 -7 63 -19z m179 -1 c0 -15 -7 -20 -25 -20 -24 0 -25 -2 -25
-70 0 -68 -1 -70 -25 -70 -24 0 -25 2 -25 70 0 68 -1 70 -25 70 -18 0 -25 5
-25 20 0 18 7 20 75 20 68 0 75 -2 75 -20z m132 -37 l15 -58 17 58 c13 44 21
57 36 57 15 0 22 -11 31 -45 11 -44 29 -70 29 -43 0 7 5 30 11 51 8 30 14 37
36 37 21 0 24 -3 19 -22 -3 -13 -13 -53 -23 -90 -17 -66 -18 -68 -49 -68 -28
0 -33 4 -39 30 -9 43 -22 45 -29 5 -6 -32 -10 -35 -40 -35 l-34 0 -21 85 c-11
46 -21 87 -21 90 0 3 11 5 24 5 21 0 26 -8 38 -57z m352 -21 c16 -42 31 -83
33 -89 3 -9 -4 -13 -21 -13 -15 0 -29 7 -32 15 -4 9 -19 15 -39 15 -20 0 -35
-6 -39 -15 -7 -18 -60 -21 -54 -2 3 6 18 47 34 90 27 73 30 77 59 77 28 0 32
-5 59 -78z m106 8 l0 -70 45 0 c38 0 45 -3 45 -20 0 -18 -7 -20 -70 -20 l-70
0 0 90 c0 89 0 90 25 90 24 0 25 -2 25 -70z m160 0 l0 -70 45 0 c38 0 45 -3
45 -20 0 -18 -7 -20 -70 -20 l-70 0 0 90 c0 89 0 90 25 90 24 0 25 -2 25 -70z
m250 50 c0 -17 -7 -20 -40 -20 -29 0 -40 -4 -40 -15 0 -10 11 -15 35 -15 28 0
35 -4 35 -20 0 -16 -7 -20 -35 -20 -24 0 -35 -5 -35 -15 0 -11 11 -15 40 -15
33 0 40 -3 40 -20 0 -18 -7 -20 -65 -20 l-65 0 0 90 0 90 65 0 c58 0 65 -2 65
-20z m160 0 c0 -15 -7 -20 -25 -20 -24 0 -25 -2 -25 -70 0 -68 -1 -70 -25 -70
-24 0 -25 2 -25 70 0 68 -1 70 -25 70 -18 0 -25 5 -25 20 0 18 7 20 75 20 68
0 75 -2 75 -20z"/>
<path d="M514 386 c-3 -8 -4 -25 -2 -38 2 -19 9 -23 38 -23 33 0 35 2 35 35 0
32 -3 35 -33 38 -21 2 -34 -2 -38 -12z"/>
<path d="M2011 383 c-1 -6 -4 -18 -7 -27 -4 -11 -1 -16 10 -16 18 0 19 6 6 35
-5 11 -9 15 -9 8z"/>
</g>
</svg>
