<?xml version="1.0" standalone="no"?>
<!DOCTYPE svg PUBLIC "-//W3C//DTD SVG 20010904//EN"
 "http://www.w3.org/TR/2001/REC-SVG-20010904/DTD/svg10.dtd">
<svg version="1.0" xmlns="http://www.w3.org/2000/svg"
 width="271.000000pt" height="271.000000pt" viewBox="0 0 271.000000 271.000000"
 preserveAspectRatio="xMidYMid meet">

<g transform="translate(0.000000,271.000000) scale(0.100000,-0.100000)"
fill="#000000" stroke="none">
<path d="M1245 2659 c-301 -39 -564 -172 -770 -390 -163 -174 -268 -378 -321
-624 -24 -111 -24 -359 -1 -478 50 -252 166 -468 351 -653 185 -185 401 -301
653 -351 119 -23 357 -23 476 0 460 91 841 437 972 882 15 50 34 148 43 219
19 152 9 298 -32 459 -93 364 -365 685 -711 837 -206 90 -446 126 -660 99z
m155 -279 c0 -14 -7 -20 -24 -20 -23 0 -24 -2 -18 -66 5 -65 5 -66 -19 -62
-22 3 -24 8 -27 61 -3 53 -5 57 -27 57 -18 0 -25 5 -25 19 0 23 16 28 88 30
46 1 52 -1 52 -19z m218 -49 l3 -55 25 43 c36 59 58 53 62 -18 l3 -55 25 42
c23 38 50 53 66 36 7 -6 -68 -130 -83 -140 -5 -3 -18 -2 -29 1 -16 5 -20 15
-20 48 -1 40 -1 41 -16 22 -8 -11 -19 -26 -23 -33 -5 -9 -17 -11 -34 -7 -26 7
-27 10 -27 75 0 80 7 102 29 98 12 -2 17 -17 19 -57z m-429 38 c51 -18 34 -44
-29 -44 -32 0 -35 -3 -35 -29 0 -36 27 -56 53 -38 31 22 43 25 55 13 17 -17
-32 -62 -71 -63 -91 -3 -126 106 -49 152 38 23 35 23 76 9z m-171 -71 c2 -9
-9 -20 -28 -28 -20 -8 -28 -16 -22 -22 6 -6 18 -5 32 2 31 17 54 -5 26 -25
-10 -8 -23 -16 -29 -18 -6 -2 -7 -9 -3 -15 5 -9 14 -8 37 3 31 16 49 13 49 -9
0 -11 -79 -56 -99 -56 -8 0 -71 123 -71 139 0 10 83 50 95 47 6 -1 11 -10 13
-18z m911 -51 c8 -10 7 -34 -4 -92 -9 -43 -17 -80 -19 -82 -9 -9 -36 11 -36
28 0 21 -44 54 -60 44 -13 -8 -52 4 -48 16 5 15 122 98 139 98 9 1 22 -5 28
-12z m-1039 -79 c46 -57 49 -64 33 -76 -9 -6 -24 -10 -32 -8 -9 3 -34 8 -55
12 l-39 7 27 -36 c27 -35 27 -36 8 -46 -18 -9 -27 -3 -70 52 -69 86 -56 100
68 70 l25 -6 -27 35 c-20 26 -24 38 -15 47 18 18 23 14 77 -51z m1177 -24 c4
-10 -9 -30 -36 -58 l-41 -42 25 -25 c17 -16 24 -31 19 -42 -9 -24 -15 -22 -62
26 l-41 42 50 58 c52 58 75 69 86 41z m-1342 -126 c51 -40 53 -43 38 -60 -11
-13 -31 -18 -67 -18 l-51 -1 32 -27 c28 -24 31 -29 19 -45 -12 -16 -18 -13
-80 34 -73 57 -75 78 -7 80 20 0 44 4 54 7 16 7 14 10 -13 31 -26 18 -29 25
-19 37 15 19 28 14 94 -38z m1460 -5 c6 -18 -2 -27 -63 -72 l-27 -19 23 -31
c23 -31 22 -51 -2 -51 -19 0 -79 91 -68 102 16 16 116 87 123 88 4 0 10 -8 14
-17z m113 -178 c26 -54 27 -61 7 -69 -10 -3 -21 6 -33 31 -12 22 -22 32 -26
25 -4 -7 -2 -20 4 -31 14 -27 13 -38 -5 -45 -10 -3 -20 5 -30 25 -21 40 -38
28 -20 -15 14 -34 12 -46 -10 -46 -12 0 -62 97 -54 104 10 9 125 65 135 66 5
0 20 -20 32 -45z m-1683 0 c35 -34 33 -78 -4 -116 -31 -31 -59 -36 -94 -17
-80 42 -52 158 38 158 25 0 44 -8 60 -25z m1739 -165 c9 -33 14 -65 11 -70 -9
-15 -35 -12 -35 4 0 25 -17 27 -74 12 -53 -13 -56 -13 -62 6 -8 25 -9 24 56
41 51 13 55 16 52 40 -2 21 2 27 16 27 15 0 23 -14 36 -60z m-1280 -45 c43
-74 37 -75 90 18 29 49 49 57 87 37 17 -10 19 -22 19 -136 l0 -125 -42 3 c-43
3 -43 3 -48 48 l-5 45 -18 -32 c-25 -46 -58 -45 -92 4 l-25 38 0 -53 0 -52
-40 0 -40 0 0 123 c0 132 5 147 50 147 21 0 33 -12 64 -65z m421 51 c48 -20
65 -60 65 -150 0 -69 -2 -77 -24 -92 -14 -8 -35 -14 -48 -12 -22 3 -23 8 -28
93 -5 88 -6 90 -30 90 -24 0 -25 -2 -30 -90 -5 -85 -6 -90 -28 -93 -13 -2 -34
4 -48 12 -22 15 -24 23 -24 87 0 44 6 84 16 104 27 58 107 81 179 51z m174
-28 l24 -37 28 39 c26 35 34 40 69 40 22 0 40 -3 40 -8 0 -4 -20 -42 -45 -84
-45 -77 -45 -78 -45 -172 0 -87 -2 -96 -22 -110 -12 -9 -35 -16 -50 -16 l-28
0 0 113 0 112 -45 75 c-25 41 -45 79 -45 83 0 4 21 7 47 5 43 -3 51 -7 72 -40z
m-1184 11 c4 -5 -1 -19 -10 -29 -9 -10 -15 -29 -13 -42 2 -19 9 -23 38 -23 34
0 35 1 35 37 0 46 16 66 35 43 23 -28 15 -86 -15 -112 -55 -47 -139 -11 -139
60 0 53 49 99 69 66z m1815 -219 c0 -13 -7 -20 -20 -20 -13 0 -20 7 -20 20 0
13 7 20 20 20 13 0 20 -7 20 -20z m-1780 -70 c0 -13 -7 -20 -20 -20 -13 0 -20
7 -20 20 0 13 7 20 20 20 13 0 20 -7 20 -20z m554 -46 l39 -65 39 65 c31 52
44 66 63 66 47 0 55 -22 55 -146 l0 -114 -45 0 -45 0 0 48 0 47 -22 -37 c-16
-27 -29 -38 -45 -38 -17 0 -30 11 -46 38 l-22 37 -3 -47 -3 -48 -40 0 -39 0 0
118 c0 127 5 142 50 142 21 0 33 -12 64 -66z m304 54 c7 -7 12 -37 13 -67 1
-82 10 -106 39 -106 24 0 25 3 28 75 3 87 18 110 70 110 l34 0 -4 -100 c-4
-97 -5 -101 -35 -132 -59 -59 -172 -47 -208 22 -10 20 -15 58 -15 120 l0 90
33 0 c18 0 38 -5 45 -12z m968 -102 c40 -33 39 -89 -1 -123 -25 -22 -29 -23
-37 -8 -7 12 -5 22 7 35 9 10 15 29 13 42 -2 19 -9 23 -38 23 -34 0 -35 -1
-35 -37 0 -20 -5 -42 -11 -48 -17 -17 -38 15 -38 57 0 43 40 83 84 83 16 0 41
-11 56 -24z m-668 -28 c17 -17 15 -38 -5 -60 -15 -17 -15 -18 0 -18 10 0 17
-8 17 -20 0 -18 -7 -20 -55 -20 -63 0 -70 12 -30 50 24 23 35 47 15 35 -5 -3
-19 -1 -30 5 -17 9 -19 14 -9 26 14 17 80 19 97 2z m132 -1 c0 -7 -5 -18 -11
-24 -8 -8 -8 -13 0 -17 20 -13 12 -55 -14 -72 -24 -16 -85 -12 -85 6 0 24 13
37 33 34 12 -2 16 -2 10 2 -7 3 -13 14 -13 25 0 10 -7 19 -15 19 -8 0 -15 9
-15 20 0 18 7 20 55 20 38 0 55 -4 55 -13z m-1360 -32 c0 -24 21 -27 75 -11
38 12 51 13 57 3 16 -25 6 -35 -49 -49 -50 -12 -58 -17 -58 -38 0 -15 -7 -26
-16 -28 -12 -2 -20 13 -33 58 -9 33 -14 65 -11 70 10 16 35 12 35 -5z m190
-155 c13 -27 22 -52 19 -54 -9 -8 -129 -66 -137 -66 -8 0 -52 83 -52 99 0 5 7
11 15 15 10 3 21 -6 33 -31 12 -22 22 -32 26 -25 4 7 2 20 -4 31 -14 27 -13
38 5 45 10 3 20 -5 30 -25 21 -40 38 -28 20 15 -8 18 -11 36 -8 40 16 15 31 2
53 -44z m1623 39 c79 -36 49 -159 -38 -159 -79 0 -112 84 -56 141 31 31 55 36
94 18z m-1555 -174 c18 -25 32 -47 32 -49 0 -3 -30 -25 -66 -51 -52 -38 -68
-45 -75 -34 -14 23 -11 28 36 61 25 18 45 35 45 39 0 3 -9 18 -21 33 -20 26
-19 46 5 46 7 0 27 -20 44 -45z m1465 -24 c63 -48 64 -70 3 -72 -17 -1 -41 -4
-54 -8 -23 -6 -23 -6 8 -29 26 -19 29 -26 19 -38 -15 -19 -28 -14 -94 38 -51
40 -53 43 -38 60 11 13 31 18 67 18 l51 1 -32 25 c-27 22 -30 29 -21 44 13 21
13 21 91 -39z m-1355 -94 l42 -42 -53 -59 c-39 -43 -58 -58 -70 -53 -27 10
-20 30 23 72 l40 39 -26 27 c-16 17 -24 34 -21 43 9 24 19 20 65 -27z m1205
-75 c39 -51 44 -62 32 -72 -11 -9 -27 -9 -65 -1 -28 6 -54 11 -57 11 -3 0 6
-15 21 -34 23 -31 24 -35 9 -47 -13 -12 -20 -8 -50 26 -19 22 -44 52 -54 67
-19 26 -19 27 -1 37 12 6 33 6 58 1 63 -15 67 -13 39 24 -24 32 -25 35 -8 44
22 13 20 14 76 -56z m-1129 2 c9 -3 16 -15 16 -25 0 -21 44 -54 60 -44 12 7
50 -3 50 -14 0 -9 -126 -101 -138 -101 -5 0 -16 6 -25 13 -16 11 -16 18 -2 90
8 43 15 81 15 83 0 6 6 5 24 -2z m945 -120 c17 -36 31 -69 31 -73 0 -8 -85
-51 -100 -51 -24 0 -8 38 21 50 19 8 27 16 21 22 -6 6 -18 6 -31 -2 -12 -6
-26 -8 -31 -5 -14 9 -12 35 3 35 21 0 40 17 33 29 -5 8 -16 6 -37 -4 -31 -16
-49 -13 -49 9 0 12 73 54 97 55 6 1 25 -29 42 -65z m-745 10 c11 -4 16 -19 16
-48 1 -39 1 -40 16 -21 8 11 19 26 23 34 6 9 17 12 35 7 25 -6 26 -10 26 -69
0 -80 -8 -109 -29 -105 -11 2 -17 18 -21 56 l-5 53 -25 -41 c-34 -55 -54 -49
-60 19 l-5 54 -23 -42 c-22 -38 -53 -54 -65 -33 -6 9 80 142 92 142 5 0 16 -3
25 -6z m583 -40 c26 -17 39 -73 24 -103 -20 -36 -67 -54 -107 -41 -54 18 -39
45 26 45 32 0 35 3 35 29 0 36 -27 56 -52 38 -31 -22 -44 -25 -55 -14 -9 9 -6
17 8 33 36 40 72 44 121 13z m-209 -66 c3 -54 5 -58 27 -58 18 0 25 -6 25 -19
0 -22 -26 -31 -92 -31 -41 0 -48 3 -48 20 0 14 7 20 23 20 22 0 23 3 19 66 -4
64 -4 66 19 62 22 -3 24 -9 27 -60z"/>
<path d="M1861 2186 c-9 -10 -8 -15 4 -20 8 -3 15 -4 15 -2 0 3 3 11 6 20 8
20 -9 21 -25 2z"/>
<path d="M526 1798 c-20 -28 -4 -58 29 -58 35 0 52 36 29 61 -22 25 -39 24
-58 -3z"/>
<path d="M980 1351 c-5 -11 -10 -60 -10 -110 0 -90 0 -91 25 -91 24 0 25 2 25
65 0 36 3 65 8 65 4 0 22 -25 40 -55 18 -30 39 -55 45 -55 7 0 25 22 40 50 40
71 47 71 47 -4 0 -64 1 -66 25 -66 l26 0 -3 108 c-3 100 -4 107 -24 110 -17 2
-30 -12 -63 -68 -31 -51 -46 -68 -54 -61 -7 5 -28 37 -47 70 -37 64 -61 76
-80 42z"/>
<path d="M1320 1286 c0 -103 19 -134 87 -143 94 -12 133 34 133 157 0 61 -2
70 -18 70 -32 0 -42 -22 -42 -91 0 -74 -14 -99 -54 -99 -36 0 -46 20 -46 88 0
72 -12 102 -40 102 -18 0 -20 -7 -20 -84z"/>
<path d="M2190 1039 c-10 -18 -9 -25 9 -43 27 -27 56 -12 56 30 0 24 -5 30
-27 32 -19 2 -30 -3 -38 -19z"/>
<path d="M896 633 c-9 -23 2 -29 20 -11 14 13 14 16 1 21 -9 3 -18 -1 -21 -10z"/>
</g>
</svg>
